<?xml version="1.0" encoding="utf-8" ?>
<svg baseProfile="full" height="12.2mm" version="1.1" viewBox="-24.947999999999997,-17.387999999999998,258.55199999999996,46.11599999999999" width="68.39999999999999mm" xmlns="http://www.w3.org/2000/svg" xmlns:ev="http://www.w3.org/2001/xml-events" xmlns:xlink="http://www.w3.org/1999/xlink"><defs><marker id="arrow" markerHeight="6" markerUnits="strokeWidth" markerWidth="6" orient="auto" refX="9" refY="3"><path d="M0,0 L0,6 L9,3 z" fill="#f00" /></marker></defs><rect fill="rgb(255,255,255)" height="7.5mm" stroke="rgb(0,0,0)" stroke-width="0.0mm" width="61.8mm" x="0.0mm" y="0.0mm" /><rect fill="rgb(240,240,240)" height="2.5mm" stroke="rgb(0,0,0)" stroke-width="0.0mm" width="61.8mm" x="0.0mm" y="2.5mm" /><line stroke="rgb(0,0,0)" stroke-width="0.26458349999999997mm" x1="0.0mm" x2="0.0mm" y1="0.0mm" y2="-1.5mm" /><line stroke="rgb(0,0,0)" stroke-width="0.0881945mm" x1="0.0mm" x2="0.0mm" y1="0.0mm" y2="7.5mm" /><text fill="rgb(0,0,0)" font-family="Calibri, Arial" font-size="10pt" text-anchor="middle" x="0.0mm" y="-2.0mm">0.00</text><line stroke="rgb(0,0,0)" stroke-width="0.26458349999999997mm" x1="25.0mm" x2="25.0mm" y1="0.0mm" y2="-1.5mm" /><line stroke="rgb(0,0,0)" stroke-width="0.0881945mm" x1="25.0mm" x2="25.0mm" y1="0.0mm" y2="7.5mm" /><text fill="rgb(0,0,0)" font-family="Calibri, Arial" font-size="10pt" text-anchor="middle" x="25.0mm" y="-2.0mm">5.00</text><line stroke="rgb(0,0,0)" stroke-width="0.26458349999999997mm" x1="50.0mm" x2="50.0mm" y1="0.0mm" y2="-1.5mm" /><line stroke="rgb(0,0,0)" stroke-width="0.0881945mm" x1="50.0mm" x2="50.0mm" y1="0.0mm" y2="7.5mm" /><text fill="rgb(0,0,0)" font-family="Calibri, Arial" font-size="10pt" text-anchor="middle" x="50.0mm" y="-2.0mm">10.00</text><text fill="rgb(0,0,0)" font-family="Calibri, Arial" font-size="10pt" text-anchor="end" x="-2.5mm" y="2.308334mm">A</text><text fill="rgb(0,0,0)" font-family="Calibri, Arial" font-size="10pt" text-anchor="end" x="-2.5mm" y="4.808334mm">B</text><rect fill="rgb(0,255,255)" height="2.5mm" stroke="rgb(0,0,0)" stroke-width="0.0mm" width="10.0mm" x="0.0mm" y="2.5mm" /><rect fill="rgb(0,229,229)" height="2.5mm" stroke="rgb(0,0,0)" stroke-width="0.0mm" width="15.0mm" x="15.0mm" y="2.5mm" /><rect fill="rgb(0,255,255)" height="2.5mm" stroke="rgb(0,0,0)" stroke-width="0.0mm" width="15.0mm" x="20.0mm" y="2.5mm" /><rect fill="rgb(0,229,229)" height="2.5mm" stroke="rgb(0,0,0)" stroke-width="0.0mm" width="10.0mm" x="40.0mm" y="2.5mm" /><text fill="rgb(0,0,0)" font-family="Calibri, Arial" font-size="10pt" text-anchor="end" x="-2.5mm" y="7.308334mm">C</text><rect fill="rgb(255,0,255)" height="2.5mm" stroke="rgb(0,0,0)" stroke-width="0.0mm" width="10.0mm" x="0.0mm" y="5.0mm" /><rect fill="rgb(229,0,229)" height="2.5mm" stroke="rgb(0,0,0)" stroke-width="0.0mm" width="5.0mm" x="10.0mm" y="5.0mm" /><rect fill="rgb(255,0,255)" height="2.5mm" stroke="rgb(0,0,0)" stroke-width="0.0mm" width="5.0mm" x="30.0mm" y="5.0mm" /><rect fill="rgb(229,0,229)" height="2.5mm" stroke="rgb(0,0,0)" stroke-width="0.0mm" width="10.0mm" x="35.0mm" y="5.0mm" /><line stroke="rgb(0,0,0)" stroke-width="0.26458349999999997mm" x1="0.0mm" x2="0.0mm" y1="0.0mm" y2="7.5mm" /><line stroke="rgb(0,0,0)" stroke-width="0.26458349999999997mm" x1="0.0mm" x2="61.8mm" y1="0.0mm" y2="0.0mm" /><line stroke="rgb(0,0,0)" stroke-width="0.26458349999999997mm" x1="0.0mm" x2="61.8mm" y1="7.5mm" y2="7.5mm" /></svg>